<svg xmlns="http://www.w3.org/2000/svg" viewBox="0 0 100 100" width="100" height="100">
  <rect width="100" height="100" rx="18" fill="#0A0A0A"/>
  <g transform="translate(0,0)">
    <path d="M50,50 L50,7 C67,9 80,25 50,50 Z" fill="#5BA3D9"/>
    <path d="M50,50 L50,7 C67,9 80,25 50,50 Z" transform="rotate(90 50 50)" fill="#1E3A8A"/>
    <path d="M50,50 L50,7 C67,9 80,25 50,50 Z" transform="rotate(180 50 50)" fill="#5BA3D9"/>
    <path d="M50,50 L50,7 C67,9 80,25 50,50 Z" transform="rotate(270 50 50)" fill="#1E3A8A"/>
    <circle cx="50" cy="50" r="6" fill="#1E3A8A"/>
    <path d="M50 43 l1.6 4.7 5 .1 -4 3 1.5 4.8 -4.1-2.9 -4.1 2.9 1.5-4.8 -4-3 5-.1 z" fill="#A8CCEC"/>
  </g>
</svg>
